<svg xmlns="http://www.w3.org/2000/svg" width="28.213" height="29.781" viewBox="0 0 28.213 29.781">
  <path id="categ2" d="M25.236,19.248v-9.4l-4.7-4.7-4.7,4.7v3.135h-9.4V34.922H34.64V19.248h-9.4ZM12.7,31.787H9.562V28.653H12.7Zm0-6.27H9.562V22.383H12.7Zm0-6.27H9.562V16.113H12.7Zm9.4,12.539H18.966V28.653H22.1Zm0-6.27H18.966V22.383H22.1Zm0-6.27H18.966V16.113H22.1Zm0-6.27H18.966V9.844H22.1Zm9.4,18.809H28.37V28.653h3.135Zm0-6.27H28.37V22.383h3.135Z" transform="translate(-6.427 -5.141)" fill="#0b91d2"/>
</svg>
