<svg xmlns="http://www.w3.org/2000/svg" width="31.5" height="27" viewBox="0 0 31.5 27">
  <g id="categ1" transform="translate(-2.25 -4.5)">
    <path id="Path_283" data-name="Path 283" d="M12.544,20.215a1.966,1.966,0,0,0-1.631.9,3.608,3.608,0,0,0-.661,2.208,3.661,3.661,0,0,0,.661,2.215,1.974,1.974,0,0,0,1.631.9,1.9,1.9,0,0,0,1.554-.9,3.615,3.615,0,0,0,.661-2.215,3.654,3.654,0,0,0-.661-2.208A1.894,1.894,0,0,0,12.544,20.215Z" fill="#0b91d2"/>
    <path id="Path_284" data-name="Path 284" d="M23.534,20.215a1.975,1.975,0,0,0-1.631.9,3.608,3.608,0,0,0-.661,2.208,3.661,3.661,0,0,0,.661,2.215,1.983,1.983,0,0,0,1.631.9,1.923,1.923,0,0,0,1.561-.9,3.615,3.615,0,0,0,.661-2.215,3.654,3.654,0,0,0-.661-2.208A1.9,1.9,0,0,0,23.534,20.215Z" fill="#0b91d2"/>
    <path id="Path_285" data-name="Path 285" d="M31.345,12.094h0a11.237,11.237,0,0,0,.021-2.756A16.518,16.518,0,0,0,30.234,4.5s-.309.056-.9.2a17.159,17.159,0,0,0-2.876,1.041,29.323,29.323,0,0,0-4.1,2.355A17.135,17.135,0,0,0,18,7.685a18.147,18.147,0,0,0-4.359.415q-4.7-3.259-7.882-3.6A16.336,16.336,0,0,0,4.634,9.352a10.625,10.625,0,0,0,.028,2.763A10.144,10.144,0,0,0,2.25,18.83a17.457,17.457,0,0,0,.429,4.605,11.4,11.4,0,0,0,1.484,3.319A9.6,9.6,0,0,0,6.384,29,11.154,11.154,0,0,0,8.8,30.417a11.487,11.487,0,0,0,2.531.7,18.4,18.4,0,0,0,2.145.281s1.969.105,4.528.105,4.521-.105,4.521-.105a18.788,18.788,0,0,0,2.145-.281,11.818,11.818,0,0,0,2.524-.7A11.657,11.657,0,0,0,29.623,29a9.443,9.443,0,0,0,2.215-2.243,11.4,11.4,0,0,0,1.484-3.319,17.22,17.22,0,0,0,.429-4.613A10.431,10.431,0,0,0,31.345,12.094Zm-4.6,16.425c-1.962.921-4.845,1.294-8.67,1.294H17.93c-3.825,0-6.708-.366-8.634-1.294s-2.9-2.82-2.9-5.674a5.318,5.318,0,0,1,1.793-4.155,4.429,4.429,0,0,1,1.941-.963,8.206,8.206,0,0,1,2.18-.176c.661.028,1.589.155,2.763.246s2.06.211,2.939.211c.823,0,1.913-.141,3.663-.281a18.635,18.635,0,0,1,3.9-.07,4.129,4.129,0,0,1,2.257,1.034,5.345,5.345,0,0,1,1.87,4.155C29.693,25.7,28.7,27.6,26.747,28.519Z" fill="#0b91d2"/>
  </g>
</svg>
