<svg xmlns="http://www.w3.org/2000/svg" width="28.071" height="36" viewBox="0 0 28.071 36">
  <path id="categ5" d="M8.259,8.813a1.47,1.47,0,0,1-1.4-1.431c0-1.733,4.287-3.015,9.165-3.015.442,0,.738,0,.738-.375,0-.678-1.477-.9-1.477-2.033C15.281.753,16.685,0,18.458,0s3.178.753,3.178,1.959c0,1.13-1.477,1.28-1.477,2.033,0,.227.222.377.738.377,4.878,0,9.24,1.2,9.24,3.014a1.416,1.416,0,0,1-1.406,1.429H8.26Zm22.1,6.852A4.971,4.971,0,0,1,32.5,20.712l-2.07,11.37A4.775,4.775,0,0,1,25.773,36H11.289a4.776,4.776,0,0,1-4.656-3.917L4.563,20.712A4.96,4.96,0,0,1,6.781,15.74c1.035-.752,1.256-2.033,0-2.484-1.774-.678-1.405-2.862.369-2.862H17.94c1.7,0,3.771,1.28,3.771,5.423s-1.923,3.765-1.923,6.7a2.889,2.889,0,0,0,2.291,2.788c2.145.225,3.4-.6,3.4-3.615,0-3.09-1.773-4.519-1.773-7.08,0-3.089,1.92-4.295,3.177-4.295h3.1c1.773,0,2.144,2.186.369,2.864-1.256.525-1.035,1.807,0,2.484Z" transform="translate(-4.498)" fill="#0b91d2"/>
</svg>
