<svg xmlns="http://www.w3.org/2000/svg" width="24" height="24" viewBox="0 0 24 24">
  <path id="Icon_metro-chart-dots" data-name="Icon metro-chart-dots" d="M5.571,22.928h21v3h-24v-24h3Zm3.75-1.5a2.25,2.25,0,1,1,0-4.5c.066,0,.132,0,.2.009l2.419-4.031a2.25,2.25,0,1,1,3.77,0l2.419,4.031q.1-.009.2-.009c.05,0,.1,0,.149.005l3.993-6.987a2.25,2.25,0,1,1,1.858.982c-.05,0-.1,0-.149-.005L20.179,17.91a2.25,2.25,0,1,1-3.743.04l-2.419-4.031c-.065.006-.13.009-.2.009s-.132,0-.2-.009L11.206,17.95a2.25,2.25,0,0,1-1.885,3.478Z" transform="translate(-2.571 -1.928)" fill="#0b91d2"/>
</svg>
