<svg xmlns="http://www.w3.org/2000/svg" width="21.383" height="16.963" viewBox="0 0 21.383 16.963">
  <g id="Icon_ionic-md-mail-unread" data-name="Icon ionic-md-mail-unread" transform="translate(-2.25 -4.5)">
    <path id="Path_1" data-name="Path 1" d="M31.774,7.449A2.949,2.949,0,1,1,28.824,4.5,2.949,2.949,0,0,1,31.774,7.449Z" transform="translate(-8.141)" fill="#cf0000"/>
    <path id="Path_2" data-name="Path 2" d="M18.421,11.312l-5.848,3.9L4.462,9.8V7.837l8.111,5.406,4.659-3.106a4.144,4.144,0,0,1-.055-4.512H4.218A1.973,1.973,0,0,0,2.25,7.593v12.29a1.973,1.973,0,0,0,1.968,1.968H20.932A1.973,1.973,0,0,0,22.9,19.883V11.344a4.148,4.148,0,0,1-4.479-.032Z" transform="translate(0 -0.388)" fill="#55b1de"/>
  </g>
</svg>
