<svg xmlns="http://www.w3.org/2000/svg" width="20.634" height="27.512" viewBox="0 0 20.634 27.512">
  <path id="Icon_awesome-clipboard-list" data-name="Icon awesome-clipboard-list" d="M18.055,3.439h-4.3a3.439,3.439,0,1,0-6.878,0h-4.3A2.58,2.58,0,0,0,0,6.018V24.933a2.58,2.58,0,0,0,2.579,2.579H18.055a2.58,2.58,0,0,0,2.579-2.579V6.018A2.58,2.58,0,0,0,18.055,3.439ZM5.159,22.784a1.29,1.29,0,1,1,1.29-1.29A1.287,1.287,0,0,1,5.159,22.784Zm0-5.159a1.29,1.29,0,1,1,1.29-1.29A1.287,1.287,0,0,1,5.159,17.625Zm0-5.159a1.29,1.29,0,1,1,1.29-1.29A1.287,1.287,0,0,1,5.159,12.467ZM10.317,2.149a1.29,1.29,0,1,1-1.29,1.29A1.287,1.287,0,0,1,10.317,2.149ZM17.2,21.924a.431.431,0,0,1-.43.43H9.027a.431.431,0,0,1-.43-.43v-.86a.431.431,0,0,1,.43-.43h7.738a.431.431,0,0,1,.43.43Zm0-5.159a.431.431,0,0,1-.43.43H9.027a.431.431,0,0,1-.43-.43v-.86a.431.431,0,0,1,.43-.43h7.738a.431.431,0,0,1,.43.43Zm0-5.159a.431.431,0,0,1-.43.43H9.027a.431.431,0,0,1-.43-.43v-.86a.431.431,0,0,1,.43-.43h7.738a.431.431,0,0,1,.43.43Z" fill="#0b91d2"/>
</svg>
