<svg xmlns="http://www.w3.org/2000/svg" width="28.8" height="34.56" viewBox="0 0 28.8 34.56">
  <path id="Icon_map-accounting" data-name="Icon map-accounting" d="M29.52.72H6.48A2.888,2.888,0,0,0,3.6,3.6V32.4a2.888,2.888,0,0,0,2.88,2.88H29.52A2.888,2.888,0,0,0,32.4,32.4V3.6A2.888,2.888,0,0,0,29.52.72ZM12.24,29.52a1.444,1.444,0,0,1-1.44,1.44H7.92a1.444,1.444,0,0,1-1.44-1.44V28.8a1.444,1.444,0,0,1,1.44-1.44H10.8a1.444,1.444,0,0,1,1.44,1.44Zm0-5.76A1.444,1.444,0,0,1,10.8,25.2H7.92a1.444,1.444,0,0,1-1.44-1.44v-.72A1.444,1.444,0,0,1,7.92,21.6H10.8a1.444,1.444,0,0,1,1.44,1.44Zm0-5.76a1.444,1.444,0,0,1-1.44,1.44H7.92A1.444,1.444,0,0,1,6.48,18v-.72a1.444,1.444,0,0,1,1.44-1.44H10.8a1.444,1.444,0,0,1,1.44,1.44Zm8.64,11.52a1.444,1.444,0,0,1-1.44,1.44H16.56a1.444,1.444,0,0,1-1.44-1.44V28.8a1.444,1.444,0,0,1,1.44-1.44h2.88a1.444,1.444,0,0,1,1.44,1.44v.72Zm0-5.76a1.444,1.444,0,0,1-1.44,1.44H16.56a1.444,1.444,0,0,1-1.44-1.44v-.72a1.444,1.444,0,0,1,1.44-1.44h2.88a1.444,1.444,0,0,1,1.44,1.44v.72Zm0-5.76a1.444,1.444,0,0,1-1.44,1.44H16.56A1.444,1.444,0,0,1,15.12,18v-.72a1.444,1.444,0,0,1,1.44-1.44h2.88a1.444,1.444,0,0,1,1.44,1.44V18Zm8.64,11.52a1.444,1.444,0,0,1-1.44,1.44H25.2a1.444,1.444,0,0,1-1.44-1.44V28.8a1.444,1.444,0,0,1,1.44-1.44h2.88a1.444,1.444,0,0,1,1.44,1.44v.72Zm0-5.76a1.444,1.444,0,0,1-1.44,1.44H25.2a1.444,1.444,0,0,1-1.44-1.44v-.72A1.444,1.444,0,0,1,25.2,21.6h2.88a1.444,1.444,0,0,1,1.44,1.44v.72Zm0-5.76a1.444,1.444,0,0,1-1.44,1.44H25.2A1.444,1.444,0,0,1,23.76,18v-.72a1.444,1.444,0,0,1,1.44-1.44h2.88a1.444,1.444,0,0,1,1.44,1.44V18Zm0-6.48a1.444,1.444,0,0,1-1.44,1.44H7.92a1.444,1.444,0,0,1-1.44-1.44V5.76A1.444,1.444,0,0,1,7.92,4.32H28.08a1.444,1.444,0,0,1,1.44,1.44Z" transform="translate(-3.6 -0.72)" fill="#0b91d2"/>
</svg>
